<svg width="57" height="72" viewBox="0 0 57 72" fill="none" xmlns="http://www.w3.org/2000/svg">
<g clip-path="url(#clip0_126_10295)">
<path d="M49.2704 18.2511H7.1C5.21696 18.2511 3.41105 18.9992 2.07954 20.3307C0.748033 21.6622 0 23.4681 0 25.3511V46.6511C0 48.5342 0.748033 50.3401 2.07954 51.6716C3.41105 53.0031 5.21696 53.7511 7.1 53.7511H49.7C51.583 53.7511 53.3889 53.0031 54.7205 51.6716C56.052 50.3401 56.8 48.5342 56.8 46.6511V25.7807L41.038 41.5427C40.0332 42.5122 38.6879 43.0483 37.2917 43.0355C35.8955 43.0228 34.5602 42.4621 33.5733 41.4743C32.5865 40.4866 32.0271 39.1507 32.0156 37.7545C32.0042 36.3583 32.5415 35.0134 33.512 34.0096L49.2704 18.2511ZM7.1 30.6761C7.1 30.2054 7.28701 29.7539 7.61989 29.421C7.95276 29.0882 8.40424 28.9011 8.875 28.9011H15.975C16.4458 28.9011 16.8972 29.0882 17.2301 29.421C17.563 29.7539 17.75 30.2054 17.75 30.6761C17.75 31.1469 17.563 31.5984 17.2301 31.9313C16.8972 32.2641 16.4458 32.4511 15.975 32.4511H8.875C8.40424 32.4511 7.95276 32.2641 7.61989 31.9313C7.28701 31.5984 7.1 31.1469 7.1 30.6761ZM7.1 41.3261C7.1 40.8554 7.28701 40.4039 7.61989 40.071C7.95276 39.7382 8.40424 39.5511 8.875 39.5511H24.85C25.3208 39.5511 25.7722 39.7382 26.1051 40.071C26.438 40.4039 26.625 40.8554 26.625 41.3261C26.625 41.7969 26.438 42.2484 26.1051 42.5813C25.7722 42.9141 25.3208 43.1011 24.85 43.1011H8.875C8.40424 43.1011 7.95276 42.9141 7.61989 42.5813C7.28701 42.2484 7.1 41.7969 7.1 41.3261ZM56.2817 21.2828C56.615 20.9495 56.8022 20.4975 56.8022 20.0261C56.8022 19.5548 56.615 19.1027 56.2817 18.7694C55.9484 18.4361 55.4964 18.2489 55.025 18.2489C54.5536 18.2489 54.1016 18.4361 53.7683 18.7694L36.0183 36.5194C35.685 36.8527 35.4978 37.3048 35.4978 37.7761C35.4978 38.2475 35.685 38.6995 36.0183 39.0328C36.3516 39.3661 36.8036 39.5534 37.275 39.5534C37.7464 39.5534 38.1984 39.3661 38.5317 39.0328L56.2817 21.2828Z" fill="#91C0FF"/>
</g>
<defs>
<clipPath id="clip0_126_10295">
<rect width="56.8022" height="71.5022" fill="white" transform="translate(0 0.248901)"/>
</clipPath>
</defs>
</svg>
