<svg width="47" height="70" viewBox="0 0 47 70" fill="none" xmlns="http://www.w3.org/2000/svg">
<mask id="mask0_126_10345" style="mask-type:luminance" maskUnits="userSpaceOnUse" x="1" y="13" width="45" height="44">
<path d="M23.5 55C26.127 55.0034 28.7287 54.4876 31.1556 53.4823C33.5826 52.477 35.7869 51.002 37.642 49.142C39.502 47.2869 40.977 45.0826 41.9823 42.6556C42.9876 40.2287 43.5034 37.627 43.5 35C43.5034 32.3731 42.9876 29.7714 41.9823 27.3444C40.9769 24.9175 39.5019 22.7131 37.642 20.858C35.7869 18.998 33.5826 17.523 31.1556 16.5177C28.7287 15.5124 26.127 14.9966 23.5 15C20.8731 14.9967 18.2714 15.5125 15.8444 16.5178C13.4175 17.5231 11.2131 18.9981 9.35802 20.858C7.49809 22.7131 6.02309 24.9175 5.01778 27.3444C4.01247 29.7714 3.49667 32.3731 3.50002 35C3.49661 37.627 4.01239 40.2287 5.0177 42.6556C6.02302 45.0826 7.49804 47.2869 9.35802 49.142C11.2131 51.0019 13.4175 52.4769 15.8444 53.4823C18.2714 54.4876 20.8731 55.0034 23.5 55Z" fill="white" stroke="white" stroke-width="4" stroke-linejoin="round"/>
<path d="M15.5 35L21.5 41L33.5 29" stroke="black" stroke-width="4" stroke-linecap="round" stroke-linejoin="round"/>
</mask>
<g mask="url(#mask0_126_10345)">
<path d="M-0.5 11H47.5V59H-0.5V11Z" fill="#91C0FF"/>
</g>
</svg>
