<svg width="251" height="15" viewBox="0 0 251 15" fill="none" xmlns="http://www.w3.org/2000/svg">
<path fill-rule="evenodd" clip-rule="evenodd" d="M60.9521 14.5138L63.7142 14.54L63.7203 6.49122C65.2853 7.24146 72.366 14.5564 73.5799 15.0004L73.5912 0.437926L70.8604 0.435589L70.8066 8.72323C69.8404 8.23476 69.1673 7.34429 68.3353 6.60154C67.1934 5.58159 61.4724 0.178032 60.9961 -6.10352e-05L60.9521 14.5134V14.5138Z" fill="white"/>
<path fill-rule="evenodd" clip-rule="evenodd" d="M220.94 13.2096L220.977 7.22409L215.803 7.20166L215.78 9.78237L218.191 9.89549L218.166 11.5801C214.4 12.7515 211.258 10.7271 211.698 6.77255C211.886 5.07809 212.724 3.91091 214.255 3.39299C216.408 2.66472 217.696 3.44861 219.404 3.79966C219.86 3.16675 220.231 2.09398 220.179 1.28392C215.742 -1.05653 208.469 0.658488 208.739 8.15522C208.963 14.3805 215.735 16.204 220.94 13.2096Z" fill="white"/>
<path fill-rule="evenodd" clip-rule="evenodd" d="M92.4836 11.1304C92.0344 11.6605 91.4636 12.5739 91.3159 13.2619C98.4069 17.1763 102.224 12.2425 100.413 8.65583C99.2829 6.41868 96.4371 6.54676 95.2134 5.22017C94.2594 4.18574 95.0194 3.00967 96.4194 2.89702C98.2055 2.75398 98.6163 3.47898 99.9378 3.694C100.412 3.05548 100.733 2.47726 100.911 1.66813C98.7411 0.691188 96.5059 -0.36288 93.9864 1.0226C92.3817 1.90512 90.992 4.6471 92.6972 6.76225C93.9471 8.31226 97.4085 8.93769 97.8558 10.2302C98.3677 11.7077 96.9354 12.2004 95.8201 12.2102C94.487 12.2219 93.403 11.5572 92.4836 11.13V11.1304Z" fill="white"/>
<path fill-rule="evenodd" clip-rule="evenodd" d="M11.3078 13.5018L10.3842 11.0183C8.75609 11.5161 7.46877 12.652 5.10494 11.5544C3.84707 10.9701 2.90519 9.40283 2.89491 7.56067C2.88462 5.61426 3.91158 4.1783 5.05353 3.50052C7.18924 2.2333 9.3689 3.79921 10.1897 3.95486C10.4501 3.01859 10.8315 2.48244 10.989 1.37555C8.75048 0.603817 6.38993 -0.55075 3.35393 1.19372C-1.06942 3.73517 -1.2003 11.2473 3.45723 13.8056C6.44041 15.4444 8.76123 14.5974 11.3078 13.5022V13.5018Z" fill="white"/>
<path fill-rule="evenodd" clip-rule="evenodd" d="M243.089 14.4786L245.796 14.5497C245.917 13.3114 245.647 10.9556 245.958 9.99123C246.154 9.37936 247.314 7.45867 247.673 6.79818C248.379 5.49871 250.76 1.50961 250.996 0.485455L247.667 0.463953C247.2 1.59328 246.656 2.59172 246.122 3.67945C245.822 4.29085 245.671 4.67088 245.389 5.2949C245.146 5.83386 244.926 6.41067 244.469 6.80052L241.358 0.546689C240.488 0.320918 239.045 0.441516 238.026 0.482651C238.473 2.17196 242.323 8.29257 242.888 9.80566C243.296 10.9009 243.005 13.1866 243.089 14.4777V14.4786Z" fill="white"/>
<path fill-rule="evenodd" clip-rule="evenodd" d="M126.514 14.5679C117.339 16.2399 114.555 2.22667 124.089 0.438257C128.191 -0.331609 131.775 2.84228 132.293 6.25737C132.956 10.6213 130.134 13.9084 126.514 14.5679ZM124.209 3.14009C119.065 4.33392 120.366 13.1853 126.383 11.8564C131.393 10.75 130.176 1.75508 124.209 3.14009Z" fill="white"/>
<path fill-rule="evenodd" clip-rule="evenodd" d="M185.987 14.5127C176.837 16.5657 173.412 2.73428 182.982 0.486385L182.982 0.485918C187.31 -0.530755 190.633 2.77121 191.383 5.94136C192.423 10.3343 189.22 13.7873 185.987 14.5127ZM185.926 11.7484C180.446 13.5415 177.614 5.50863 182.99 3.26026C185.601 2.16833 187.85 4.16802 188.448 5.97186C189.309 8.56566 187.796 11.1366 185.926 11.7484Z" fill="white"/>
<path fill-rule="evenodd" clip-rule="evenodd" d="M28.6912 8.9756C27.7479 4.41389 30.8124 1.37462 34.2976 0.496306V0.495839C38.3437 -0.524107 41.979 2.70915 42.7297 5.91716C43.7623 10.3321 40.5776 13.7888 37.2228 14.5227C32.8869 15.4716 29.397 12.3874 28.6912 8.9756ZM34.4455 3.20842C29.3495 4.77013 31.1636 13.4303 37.0809 11.7924C41.8445 10.4738 40.359 1.39571 34.4455 3.20842Z" fill="white"/>
<path fill-rule="evenodd" clip-rule="evenodd" d="M150.469 14.5306L159.835 14.5428L159.827 11.8494L153.235 11.8298L153.194 0.467319L150.511 0.461243L150.469 14.5306Z" fill="white"/>
</svg>
