<svg width="64" height="42" viewBox="0 0 64 42" fill="none" xmlns="http://www.w3.org/2000/svg">
<g clip-path="url(#clip0_229_1159)">
<path d="M38.4309 28.4368L51.5613 15.8799C48.8339 5.24477 38.0015 -1.1654 27.3663 1.56222C22.5772 2.79038 18.4176 5.7591 15.6995 9.88895C15.9025 9.88398 38.4309 28.4368 38.4309 28.4368Z" fill="#0364B8"/>
<path d="M24.2566 12.253L24.2561 12.2553C21.747 10.7015 18.8535 9.88018 15.9023 9.88399C15.8342 9.88399 15.7671 9.88821 15.699 9.88895C6.9208 9.99779 -0.107346 17.2024 0.00124153 25.9808C0.0406759 29.165 1.0356 32.264 2.85708 34.8761L22.5284 32.4124L37.6099 20.2515L24.2566 12.253Z" fill="#0078D4"/>
<path d="M51.5613 15.8799C51.271 15.8594 50.9801 15.8486 50.6891 15.8474C48.9277 15.8456 47.1846 16.2054 45.5678 16.9044L45.5673 16.9032L37.6104 20.2515L46.3824 31.0872L62.0642 34.8992C65.4486 28.6167 63.0989 20.7803 56.8162 17.3959C55.1928 16.5215 53.401 16.0044 51.5613 15.8799Z" fill="#1490DF"/>
<path d="M2.85718 34.8761C4.32056 36.98 6.27138 38.6985 8.54307 39.8849C10.8148 41.0712 13.3398 41.6901 15.9026 41.6888H50.689C53.0214 41.6894 55.3103 41.0585 57.3131 39.8631C59.3158 38.6678 60.9576 36.9526 62.0642 34.8994L37.61 20.2513L2.85718 34.8761Z" fill="#28A8EA"/>
</g>
<defs>
<clipPath id="clip0_229_1159">
<rect width="63.6121" height="41" fill="white" transform="translate(0 0.934052)"/>
</clipPath>
</defs>
</svg>
