<svg width="50" height="50" viewBox="0 0 50 50" fill="none" xmlns="http://www.w3.org/2000/svg">
<g clip-path="url(#clip0_126_10312)">
<path d="M8.33333 20C6.65055 19.9976 5.00678 20.5068 3.62 21.46C4.46149 16.3974 7.07216 11.7977 10.9873 8.4796C14.9024 5.16152 19.868 3.34039 25 3.34039C30.132 3.34039 35.0976 5.16152 39.0127 8.4796C42.9278 11.7977 45.5385 16.3974 46.38 21.46C44.9934 20.5064 43.3495 19.9972 41.6667 20C40.3406 20 39.0688 20.5268 38.1311 21.4645C37.1935 22.4021 36.6667 23.6739 36.6667 25V38.3333C36.6662 39.3355 36.9669 40.3147 37.5298 41.1438C38.0927 41.973 38.8918 42.6139 39.8233 42.9833C39.5345 44.0413 38.906 44.9749 38.0344 45.6405C37.1628 46.306 36.0966 46.6666 35 46.6667H26.6667V50H35C36.9455 50.0002 38.8297 49.3198 40.3262 48.0766C41.8226 46.8334 42.8369 45.1059 43.1933 43.1933C45.1059 42.8369 46.8334 41.8226 48.0766 40.3262C49.3198 38.8297 50.0002 36.9455 50 35V25C50 18.3696 47.3661 12.0107 42.6777 7.32233C37.9893 2.63392 31.6304 0 25 0C18.3696 0 12.0107 2.63392 7.32233 7.32233C2.63392 12.0107 0 18.3696 0 25L0 35C0 37.2101 0.877974 39.3298 2.44078 40.8926C4.00358 42.4554 6.1232 43.3333 8.33333 43.3333C9.65942 43.3333 10.9312 42.8065 11.8689 41.8689C12.8065 40.9312 13.3333 39.6594 13.3333 38.3333V25C13.3333 23.6739 12.8065 22.4021 11.8689 21.4645C10.9312 20.5268 9.65942 20 8.33333 20Z" fill="#91C0FF"/>
</g>
<defs>
<clipPath id="clip0_126_10312">
<rect width="50" height="50" fill="white"/>
</clipPath>
</defs>
</svg>
