<svg width="60" height="57" viewBox="0 0 60 57" fill="none" xmlns="http://www.w3.org/2000/svg">
<g clip-path="url(#clip0_229_1141)">
<path d="M41.8389 21.3584H57.3326C58.7965 21.3584 59.9831 22.5451 59.9831 24.0089V38.1216C59.9831 43.5013 55.6219 47.8628 50.2421 47.8628H50.196C44.8162 47.8635 40.4543 43.503 40.4536 38.123V22.7438C40.4535 22.5619 40.4893 22.3817 40.5589 22.2136C40.6284 22.0455 40.7305 21.8927 40.8591 21.764C40.9878 21.6354 41.1405 21.5333 41.3086 21.4637C41.4767 21.3941 41.6569 21.3583 41.8389 21.3584Z" fill="#5059C9"/>
<path d="M52.3108 18.5687C55.7777 18.5687 58.5882 15.7582 58.5882 12.2913C58.5882 8.82438 55.7777 6.0139 52.3108 6.0139C48.8439 6.0139 46.0334 8.82438 46.0334 12.2913C46.0334 15.7582 48.8439 18.5687 52.3108 18.5687Z" fill="#5059C9"/>
<path d="M32.7814 18.5687C37.7892 18.5687 41.8487 14.5091 41.8487 9.50136C41.8487 4.49363 37.7892 0.434052 32.7814 0.434052C27.7737 0.434052 23.7141 4.49363 23.7141 9.50136C23.7141 14.5091 27.7737 18.5687 32.7814 18.5687Z" fill="#7B83EB"/>
<path d="M44.8714 21.3584H19.2962C17.8498 21.3942 16.7057 22.5946 16.7392 24.041V40.1373C16.5372 48.8171 23.4041 56.02 32.0837 56.2325C40.7632 56.02 47.6301 48.8171 47.4284 40.1373V24.041C47.4619 22.5946 46.3177 21.3942 44.8714 21.3584Z" fill="#7B83EB"/>
<path opacity="0.1" d="M33.4788 21.3584V43.9149C33.4754 44.4208 33.3227 44.9145 33.0398 45.3339C32.7569 45.7534 32.3564 46.0799 31.8885 46.2725C31.5839 46.4014 31.2566 46.4677 30.926 46.4677H17.9665C17.7852 46.0073 17.6179 45.5469 17.4782 45.0728C16.9899 43.4721 16.7408 41.8081 16.739 40.1345V24.0368C16.7055 22.5927 17.8478 21.3942 19.2918 21.3586L33.4788 21.3584Z" fill="black"/>
<path opacity="0.2" d="M32.084 21.3584V45.31C32.084 45.6406 32.0177 45.9679 31.8888 46.2725C31.6962 46.7403 31.3696 47.1409 30.9502 47.4238C30.5308 47.7067 30.0371 47.8594 29.5312 47.8628H18.6229C18.3858 47.4024 18.1625 46.9419 17.9673 46.4677C17.7798 46.0118 17.6168 45.5462 17.479 45.0728C16.9907 43.4721 16.7416 41.8081 16.7397 40.1345V24.0368C16.7062 22.5927 17.8485 21.3942 19.2925 21.3586L32.084 21.3584Z" fill="black"/>
<path opacity="0.2" d="M32.084 21.3584V42.52C32.0734 43.9254 30.9368 45.0623 29.5312 45.0728H17.4787C16.9904 43.4721 16.7413 41.8081 16.7395 40.1345V24.0368C16.706 22.5927 17.8482 21.3942 19.2923 21.3586L32.084 21.3584Z" fill="black"/>
<path opacity="0.2" d="M30.6891 21.3584V42.52C30.6783 43.9254 29.5417 45.0623 28.1363 45.0728H17.4787C16.9904 43.4721 16.7413 41.8081 16.7395 40.1345V24.0368C16.706 22.5927 17.8482 21.3942 19.2923 21.3586L30.6891 21.3584Z" fill="black"/>
<path opacity="0.1" d="M33.4788 14.1466V18.5406C33.2416 18.5546 33.0183 18.5687 32.7812 18.5687C32.5441 18.5687 32.3208 18.5546 32.0837 18.5406C31.6129 18.5093 31.1459 18.4346 30.6888 18.3175C29.2962 17.9877 28.0015 17.3329 26.9104 16.4068C25.8194 15.4806 24.9631 14.3094 24.4114 12.9888C24.2189 12.539 24.0694 12.0719 23.9651 11.5938H30.926C32.3335 11.5991 33.4734 12.7388 33.4788 14.1466Z" fill="black"/>
<path opacity="0.2" d="M32.0839 15.5414V18.5405C31.613 18.5093 31.1461 18.4346 30.689 18.3175C29.2965 17.9876 28.0017 17.3329 26.9107 16.4067C25.8197 15.4806 24.9634 14.3093 24.4119 12.9888H29.5311C30.9388 12.994 32.0785 14.1339 32.0839 15.5414Z" fill="black"/>
<path opacity="0.2" d="M32.0839 15.5414V18.5405C31.613 18.5093 31.1461 18.4346 30.689 18.3175C29.2965 17.9876 28.0017 17.3329 26.9107 16.4067C25.8197 15.4806 24.9634 14.3093 24.4119 12.9888H29.5311C30.9388 12.994 32.0785 14.1339 32.0839 15.5414Z" fill="black"/>
<path opacity="0.2" d="M30.6888 15.5414V18.3175C29.2961 17.9876 28.0014 17.3328 26.9103 16.4066C25.8193 15.4805 24.963 14.3092 24.4114 12.9886H28.136C29.5437 12.994 30.6834 14.1339 30.6888 15.5414Z" fill="black"/>
<path d="M2.55653 12.9886H28.1314C29.5438 12.9886 30.6887 14.1334 30.6887 15.5456V41.1207C30.6887 42.5329 29.5438 43.6778 28.1317 43.6778H2.55653C1.14435 43.6778 -0.000488281 42.5329 -0.000488281 41.1207V15.5458C-0.000488281 14.1332 1.14435 12.9886 2.55653 12.9886Z" fill="url(#paint0_linear_229_1141)"/>
<path d="M22.0735 22.7228H16.9609V36.6445H13.7037V22.7228H8.61499V20.0221H22.0735V22.7228Z" fill="white"/>
</g>
<defs>
<linearGradient id="paint0_linear_229_1141" x1="533.132" y1="-186.8" x2="2535.81" y2="3281.7" gradientUnits="userSpaceOnUse">
<stop stop-color="#5A62C3"/>
<stop offset="0.5" stop-color="#4D55BD"/>
<stop offset="1" stop-color="#3940AB"/>
</linearGradient>
<clipPath id="clip0_229_1141">
<rect width="59.9833" height="56" fill="white" transform="translate(0 0.434052)"/>
</clipPath>
</defs>
</svg>
