<?xml version="1.0" standalone="no"?>
<!DOCTYPE svg PUBLIC "-//W3C//DTD SVG 20010904//EN"
 "http://www.w3.org/TR/2001/REC-SVG-20010904/DTD/svg10.dtd">
<svg version="1.0" xmlns="http://www.w3.org/2000/svg"
 width="512.000000pt" height="512.000000pt" viewBox="0 0 512.000000 512.000000"
 preserveAspectRatio="xMidYMid meet">
<metadata>
Created by potrace 1.14, written by Peter Selinger 2001-2017
</metadata>
<g transform="translate(0.000000,512.000000) scale(0.100000,-0.100000)"
fill="#000000" stroke="none">
<path d="M2317 4704 c-1 -1 -40 -5 -87 -8 -496 -39 -992 -271 -1330 -622 -164
-171 -265 -313 -360 -509 -88 -182 -137 -342 -176 -580 -9 -59 -12 -360 -3
-414 4 -25 12 -80 19 -121 32 -201 103 -401 212 -595 34 -60 64 -112 68 -115
3 -3 22 -27 40 -55 42 -61 48 -69 131 -164 205 -236 457 -412 789 -552 69 -30
285 -94 344 -103 21 -4 41 -8 45 -10 4 -3 34 -7 66 -11 33 -3 67 -8 75 -10 35
-9 184 -17 305 -17 117 0 356 24 395 38 8 3 29 8 45 11 194 29 536 172 725
301 41 29 86 60 100 69 106 73 283 245 392 380 76 95 213 331 259 448 134 334
168 706 98 1062 -11 56 -31 135 -45 175 -13 40 -26 80 -29 88 -16 61 -134 303
-177 364 -5 6 -32 45 -61 86 -335 476 -894 791 -1517 856 -61 6 -317 13 -323
8z m340 -29 c557 -56 1101 -348 1423 -765 19 -25 40 -49 46 -55 18 -17 116
-175 157 -255 97 -187 168 -417 194 -630 18 -145 6 -456 -21 -548 -3 -9 -7
-33 -10 -52 -15 -98 -83 -289 -157 -433 -41 -82 -149 -259 -169 -277 -3 -3
-21 -25 -40 -50 -190 -247 -498 -479 -800 -603 -292 -120 -550 -171 -855 -169
-357 2 -648 69 -952 219 -249 123 -476 298 -658 508 -39 45 -160 215 -185 260
-13 22 -33 58 -45 80 -75 132 -158 374 -189 550 -28 155 -28 451 0 610 20 115
67 277 111 385 47 113 147 296 205 375 251 338 567 579 943 720 55 20 107 38
117 40 9 2 25 8 35 13 33 18 316 71 413 78 52 4 96 8 98 9 5 5 272 -3 339 -10z"/>
<path d="M2199 4575 c-52 -7 -111 -16 -130 -19 -31 -5 -44 -8 -104 -20 -94
-19 -383 -120 -420 -146 -5 -4 -41 -24 -80 -45 -94 -50 -265 -164 -265 -175 0
-6 -5 -10 -10 -10 -27 0 -252 -225 -332 -331 -199 -265 -313 -549 -354 -884
-8 -68 -9 -290 0 -350 3 -22 7 -58 10 -80 2 -22 9 -60 15 -85 5 -25 12 -57 14
-71 6 -31 54 -186 66 -214 5 -11 26 -58 47 -104 31 -72 67 -138 119 -222 21
-35 94 -135 115 -159 101 -116 135 -152 206 -214 113 -99 117 -103 224 -174
99 -67 174 -106 192 -100 6 2 -18 19 -52 37 -35 18 -95 54 -135 81 -409 276
-684 678 -775 1134 -56 275 -43 564 35 825 33 112 100 275 135 333 17 27 30
51 30 54 0 3 23 39 51 80 165 245 346 416 614 581 200 123 517 229 770 258 93
11 350 13 435 4 254 -26 490 -94 703 -200 45 -23 84 -45 85 -50 2 -5 9 -9 15
-9 14 0 168 -101 228 -150 223 -180 409 -411 518 -645 70 -148 133 -352 146
-474 3 -30 9 -59 12 -65 10 -15 12 -294 3 -361 -5 -33 -11 -82 -15 -109 -3
-27 -15 -85 -26 -130 -11 -44 -22 -88 -24 -96 -10 -42 -62 -175 -99 -250 -161
-336 -437 -625 -776 -814 -36 -20 -57 -36 -47 -36 33 0 194 98 317 193 60 46
239 221 285 277 95 118 185 258 241 377 41 87 101 249 106 285 2 13 6 28 9 33
4 6 9 26 13 45 3 19 8 46 11 60 26 125 37 351 23 487 -7 72 -32 210 -57 309
-53 212 -208 495 -374 685 -267 304 -592 499 -1024 614 -24 7 -120 23 -178 31
-22 3 -47 8 -55 11 -34 12 -369 10 -461 -2z"/>
<path d="M2388 3785 c-2 -1 -31 -5 -65 -9 -125 -13 -279 -77 -413 -171 -226
-160 -385 -431 -417 -715 -56 -489 182 -949 578 -1116 128 -53 217 -69 389
-67 249 2 446 82 617 249 105 104 169 207 217 351 10 29 15 61 11 72 -6 20
-101 65 -116 55 -5 -3 -27 -29 -48 -57 -87 -118 -187 -198 -286 -230 -119 -39
-297 -48 -420 -22 -196 42 -352 191 -429 413 -8 23 -14 42 -12 42 2 0 -3 21
-11 48 -22 70 -27 297 -8 404 29 169 102 324 199 422 100 102 182 137 310 133
131 -5 199 -57 232 -178 17 -66 17 -103 3 -184 -11 -58 -10 -66 11 -111 27
-54 56 -84 115 -116 55 -31 182 -32 240 -3 96 47 157 145 157 249 -1 132 -35
210 -136 312 -86 86 -243 172 -346 190 -14 3 -38 9 -55 14 -52 16 -305 36
-317 25z"/>
<path d="M3202 1273 c-6 -2 -10 -9 -6 -14 8 -14 21 -11 28 6 6 15 1 17 -22 8z"/>
<path d="M1675 1243 c-29 -7 -46 -24 -61 -60 -16 -37 -3 -88 27 -103 17 -10
17 -8 4 22 -7 18 -11 45 -8 60 6 31 38 68 58 68 8 0 15 5 15 10 0 10 -3 11
-35 3z"/>
<path d="M3096 1241 c-16 -6 -13 -12 28 -47 36 -31 48 -49 54 -81 7 -38 8 -40
32 -31 14 5 20 12 14 16 -20 13 -34 72 -23 95 9 20 9 20 -4 4 -13 -16 -16 -16
-41 4 -14 11 -26 27 -26 35 0 15 -6 16 -34 5z"/>
<path d="M1762 1213 c9 -10 18 -25 21 -33 4 -12 6 -12 12 3 5 12 1 23 -11 32
-27 20 -40 18 -22 -2z"/>
<path d="M3040 1220 c-14 -4 -19 -8 -11 -9 8 -1 22 -8 31 -16 16 -14 17 -14
13 10 -3 14 -6 25 -7 24 0 -1 -12 -5 -26 -9z"/>
<path d="M2947 1197 c-20 -16 -30 -34 -34 -64 -5 -37 -2 -46 25 -73 20 -19 40
-30 59 -30 l28 1 -30 13 c-57 25 -73 108 -30 151 30 31 19 32 -18 2z"/>
<path d="M1827 1180 c-48 -38 -46 -117 3 -148 17 -10 18 -10 4 16 -8 15 -14
36 -14 47 0 35 34 89 60 96 l25 7 -26 1 c-15 1 -38 -8 -52 -19z"/>
<path d="M1928 1176 c32 -42 25 -113 -15 -143 -28 -21 -9 -23 24 -3 59 35 55
119 -7 159 l-25 16 23 -29z"/>
<path d="M2014 1161 c9 -10 13 -21 9 -26 -5 -4 -3 -5 3 -2 7 4 33 -25 64 -73
29 -44 56 -80 59 -80 4 0 7 16 8 36 0 20 -2 32 -6 26 -4 -7 -26 17 -51 55 -32
48 -53 69 -74 75 -26 6 -27 6 -12 -11z"/>
<path d="M2758 1163 c-39 -24 -53 -63 -39 -106 10 -30 22 -41 76 -66 6 -2 -2
8 -16 23 -43 43 -44 120 -1 152 24 19 12 17 -20 -3z"/>
<path d="M2826 1168 c43 -20 60 -114 27 -150 -9 -10 -11 -18 -5 -18 6 0 20 12
32 28 42 53 7 153 -54 151 l-21 0 21 -11z"/>
<path d="M2150 1156 c0 -2 7 -9 15 -16 12 -10 15 -10 15 4 0 9 -7 16 -15 16
-8 0 -15 -2 -15 -4z"/>
<path d="M2566 1152 c-14 -3 -15 -6 -6 -12 8 -5 13 -35 14 -89 1 -68 4 -81 17
-81 15 0 17 13 15 93 0 55 -5 93 -11 93 -5 0 -19 -2 -29 -4z"/>
<path d="M2227 1132 c-30 -33 -13 -70 41 -86 12 -4 27 -17 33 -28 9 -18 8 -24
-7 -35 -14 -10 -14 -13 -3 -13 21 0 39 21 39 45 0 23 -28 55 -48 55 -7 0 -21
9 -33 21 -16 16 -18 23 -8 35 18 22 5 27 -14 6z"/>
<path d="M2303 1129 c15 -24 27 -25 27 -1 0 10 -8 18 -20 19 -17 2 -18 -1 -7
-18z"/>
<path d="M2382 1125 c-35 -29 -44 -62 -26 -103 13 -32 47 -57 67 -48 7 2 4 5
-6 5 -38 2 -50 102 -16 145 26 33 19 33 -19 1z"/>
<path d="M2448 1143 c53 -10 74 -111 32 -153 -13 -13 -16 -20 -7 -20 8 0 24
11 37 25 35 38 32 101 -6 132 -16 13 -40 22 -54 22 -24 -2 -24 -2 -2 -6z"/>
<path d="M3063 1133 c-21 -4 -22 -6 -7 -28 13 -19 13 -28 3 -47 -12 -22 -12
-22 12 -7 18 12 24 25 24 53 0 20 -2 35 -5 35 -3 -1 -15 -4 -27 -6z"/>
<path d="M1753 1087 c-4 -7 -19 -17 -33 -23 -24 -11 -24 -11 7 -11 25 0 32 5
36 24 5 26 2 29 -10 10z"/>
<path d="M2002 1015 c-9 -20 -9 -25 2 -25 8 0 14 11 14 25 0 14 -1 25 -3 25
-1 0 -7 -11 -13 -25z"/>
<path d="M2710 1015 c0 -9 -10 -20 -22 -25 -22 -8 -22 -9 5 -9 22 -1 27 3 27
24 0 14 -2 25 -5 25 -3 0 -5 -7 -5 -15z"/>
<path d="M2203 1005 c2 -24 15 -35 42 -34 14 0 16 2 5 6 -8 3 -23 15 -32 26
-16 21 -16 21 -15 2z"/>
<path d="M3862 1161 c-8 -5 2 -15 30 -31 24 -13 47 -28 51 -34 5 -7 6 -4 3 7
-3 10 -6 23 -6 28 0 6 -5 7 -11 4 -6 -4 -20 2 -32 13 -13 13 -27 18 -35 13z"/>
<path d="M3790 1105 c-18 -10 -20 -14 -8 -15 9 0 22 -8 27 -17 8 -15 10 -12 8
14 -1 18 -2 33 -2 33 0 -1 -11 -7 -25 -15z"/>
<path d="M3750 1069 c0 -26 26 -43 47 -30 16 10 16 11 1 9 -9 -2 -24 6 -32 17
-13 17 -15 17 -16 4z"/>
<path d="M3946 1071 c-4 -7 -5 -15 -2 -18 9 -9 19 4 14 18 -4 11 -6 11 -12 0z"/>
<path d="M1136 1044 c-22 -22 -20 -50 6 -68 26 -19 39 -11 14 7 -24 18 -17 48
14 64 24 12 24 13 3 13 -12 0 -29 -7 -37 -16z"/>
<path d="M3820 1035 c-7 -8 -22 -15 -33 -15 -16 0 -18 -3 -9 -12 10 -10 19 -8
43 6 26 15 33 16 40 5 4 -7 11 -10 15 -6 9 9 -15 37 -31 37 -7 0 -18 -7 -25
-15z"/>
<path d="M1196 1025 c-3 -8 -1 -15 4 -15 6 0 10 7 10 15 0 8 -2 15 -4 15 -2 0
-6 -7 -10 -15z"/>
<path d="M3689 1005 c11 -15 18 -35 16 -46 -2 -11 0 -17 6 -14 14 10 11 52 -7
69 -25 26 -37 18 -15 -9z"/>
<path d="M3637 1013 c-4 -3 -7 -19 -7 -34 0 -29 30 -55 53 -45 7 2 6 5 -4 5
-19 1 -41 45 -33 66 6 16 2 20 -9 8z"/>
<path d="M3527 1003 c-6 -13 59 -129 71 -125 6 2 -1 23 -19 53 -16 27 -29 54
-29 59 0 12 -18 22 -23 13z"/>
<path d="M1240 971 c-12 -23 -13 -48 -2 -55 4 -2 9 5 9 17 1 12 12 30 24 40
21 17 21 17 0 17 -11 0 -25 -9 -31 -19z"/>
<path d="M1307 968 c3 -18 -1 -32 -16 -47 -28 -28 -27 -33 4 -19 14 6 25 15
25 19 0 4 2 13 5 21 3 7 -1 22 -9 33 -13 19 -14 18 -9 -7z"/>
<path d="M3795 981 c-10 -16 21 -24 42 -11 14 9 14 10 2 7 -9 -3 -21 -1 -27 5
-6 6 -12 6 -17 -1z"/>
<path d="M1373 894 c-12 -25 -17 -47 -11 -50 5 -3 16 12 25 34 10 27 20 39 29
35 18 -7 18 -27 -1 -63 -9 -17 -11 -30 -6 -30 12 0 41 52 41 72 0 7 -13 20
-29 29 l-28 17 -20 -44z"/>
<path d="M3467 912 c7 -4 19 -23 27 -42 14 -32 21 -27 16 10 -2 17 -28 40 -44
40 -7 0 -6 -3 1 -8z"/>
<path d="M3427 903 c-4 -3 -7 -18 -7 -33 0 -29 37 -57 62 -47 9 4 8 6 -3 6
-22 1 -50 46 -43 65 6 17 2 21 -9 9z"/>
<path d="M1507 863 c-12 -11 -8 -21 15 -43 19 -18 20 -22 8 -30 -13 -8 -12
-10 3 -10 22 0 24 48 1 57 -8 3 -13 12 -10 19 6 14 -6 19 -17 7z"/>
<path d="M1550 861 c0 -5 5 -13 10 -16 6 -3 10 -2 10 4 0 5 -4 13 -10 16 -5 3
-10 2 -10 -4z"/>
<path d="M3320 856 c-6 -8 -18 -12 -26 -9 -11 4 -11 -3 3 -41 17 -46 42 -66
28 -23 -20 64 5 93 30 33 19 -45 37 -48 21 -3 -21 59 -34 69 -56 43z"/>
<path d="M3127 843 c-4 -3 -3 -11 2 -17 4 -6 16 -35 25 -63 10 -29 22 -53 27
-53 12 0 12 5 -5 45 -9 22 -11 37 -5 41 18 11 36 -4 42 -35 4 -17 12 -31 18
-31 6 0 8 7 5 16 -3 9 -6 21 -6 28 0 7 -6 20 -13 30 -11 15 -17 17 -35 7 -19
-10 -22 -8 -28 14 -6 25 -15 31 -27 18z"/>
<path d="M1622 832 c1 -4 -1 -25 -6 -46 -5 -28 -4 -41 6 -47 22 -14 29 -10 17
10 -9 13 -9 26 -1 49 8 24 8 32 -4 36 -7 3 -13 2 -12 -2z"/>
<path d="M1774 823 c0 -10 -8 -42 -17 -70 -12 -42 -13 -53 -3 -53 7 0 18 24
26 58 7 31 15 63 17 70 3 6 -1 12 -9 12 -7 0 -14 -8 -14 -17z"/>
<path d="M1486 812 c-2 -4 -1 -14 4 -22 7 -11 9 -9 7 8 -1 24 -3 26 -11 14z"/>
<path d="M1673 777 c-7 -26 -8 -46 -2 -51 5 -6 9 -2 9 12 0 12 6 31 12 42 9
13 9 23 2 30 -7 7 -14 -4 -21 -33z"/>
<path d="M1970 780 c0 -5 5 -10 10 -10 6 0 10 5 10 10 0 6 -4 10 -10 10 -5 0
-10 -4 -10 -10z"/>
<path d="M1848 769 c-9 -6 -9 -9 -1 -9 9 0 9 -8 1 -30 -12 -36 -5 -60 18 -60
13 0 14 3 4 15 -17 20 -4 63 20 67 18 3 18 4 -4 14 -14 7 -30 8 -38 3z"/>
<path d="M3065 764 c9 -9 18 -14 21 -11 9 9 -6 27 -22 27 -13 0 -13 -2 1 -16z"/>
<path d="M3022 753 c-11 -19 3 -59 23 -67 16 -6 55 4 55 14 0 4 -11 5 -24 3
-27 -5 -52 27 -42 53 7 19 -1 18 -12 -3z"/>
<path d="M1967 743 c-11 -19 -18 -93 -9 -93 5 0 13 21 17 46 6 43 3 65 -8 47z"/>
<path d="M2902 738 c-33 -33 10 -99 50 -77 10 5 18 15 18 22 0 7 -4 6 -10 -3
-15 -24 -45 1 -45 39 0 17 0 31 0 31 -1 0 -6 -5 -13 -12z"/>
<path d="M2940 743 c8 -3 7 -9 -1 -19 -10 -12 -9 -13 5 -8 18 7 17 26 -2 30
-7 1 -8 0 -2 -3z"/>
<path d="M2785 731 c-3 -6 -3 -17 2 -23 4 -7 9 -22 11 -33 4 -30 24 -46 42
-35 13 8 12 10 -2 10 -10 0 -19 3 -19 8 -7 37 -4 54 10 62 9 5 11 10 4 10 -6
0 -18 3 -26 6 -8 3 -18 1 -22 -5z"/>
<path d="M2046 687 c2 -59 5 -67 14 -32 12 47 11 75 -2 75 -9 0 -13 -15 -12
-43z"/>
<path d="M2085 720 c-3 -5 -1 -10 5 -10 8 0 11 -14 8 -40 -2 -26 1 -40 8 -40
15 0 23 77 10 90 -13 13 -23 13 -31 0z"/>
<path d="M2197 703 c-2 -5 -7 -25 -11 -45 -6 -32 -4 -38 11 -40 33 -2 38 -3
50 -11 7 -4 10 -15 7 -25 -2 -9 1 -7 7 6 15 27 6 39 -35 46 -30 5 -48 16 -27
16 8 0 11 6 7 16 -4 9 -1 23 5 30 8 9 8 14 1 14 -6 0 -13 -3 -15 -7z"/>
<path d="M2237 699 c8 -8 9 -18 2 -31 -6 -11 -6 -18 0 -18 5 0 13 9 16 20 3
11 11 20 17 20 19 0 -1 14 -25 17 -16 3 -19 1 -10 -8z"/>
<path d="M2585 703 c-17 -3 -20 -10 -17 -48 2 -25 9 -45 14 -45 6 0 8 17 6 40
-2 25 1 41 9 44 16 6 27 -12 29 -44 3 -40 3 -42 14 -35 10 6 7 66 -5 85 -6 10
-13 11 -50 3z"/>
<path d="M2432 691 c-25 -16 -18 -81 9 -81 6 0 6 6 0 18 -5 9 -9 22 -9 27 0 6
4 18 9 28 11 19 10 20 -9 8z"/>
<path d="M2478 688 c7 -7 12 -21 12 -33 0 -12 -5 -26 -12 -33 -9 -9 -9 -12 0
-12 6 0 16 10 23 21 13 25 -2 69 -23 69 -9 0 -9 -3 0 -12z"/>
<path d="M2172 593 c2 -10 12 -19 23 -20 11 -2 14 0 8 3 -7 3 -13 12 -13 20 0
8 -5 14 -11 14 -6 0 -9 -8 -7 -17z"/>
</g>
</svg>
